<?xml version="1.0" encoding="utf-8"?>
<svg version="1.1" xmlns:xlink="http://www.w3.org/1999/xlink" width="67px" height="34px" xmlns="http://www.w3.org/2000/svg">
  <defs>
    <linearGradient gradientUnits="userSpaceOnUse" x1="30.5" y1="0" x2="30.5" y2="28" id="LinearGradient124">
      <stop id="Stop125" stop-color="#ff8f00" offset="0" />
      <stop id="Stop126" stop-color="#e96000" offset="1" />
    </linearGradient>
    <pattern id="BGPattern" patternUnits="userSpaceOnUse" alignment="0 0" imageRepeat="None" />
    <mask fill="white" id="Clip127">
      <path d="M 14 28  C 6.159999999999999 28  0 21.84  0 14  C 0 6.159999999999999  6.159999999999999 0  14 0  L 47 0  C 54.84 0  61 6.159999999999999  61 14  C 61 21.84  54.84 28  47 28  L 14 28  Z " fill-rule="evenodd" />
    </mask>
  </defs>
  <g transform="matrix(1 0 0 1 3 3 )">
    <path d="M 14 28  C 6.159999999999999 28  0 21.84  0 14  C 0 6.159999999999999  6.159999999999999 0  14 0  L 47 0  C 54.84 0  61 6.159999999999999  61 14  C 61 21.84  54.84 28  47 28  L 14 28  Z " fill-rule="nonzero" fill="url(#LinearGradient124)" stroke="none" class="fill" />
    <path d="M 14 28  C 6.159999999999999 28  0 21.84  0 14  C 0 6.159999999999999  6.159999999999999 0  14 0  L 47 0  C 54.84 0  61 6.159999999999999  61 14  C 61 21.84  54.84 28  47 28  L 14 28  Z " stroke-width="6" stroke-dasharray="0" stroke="rgba(255, 255, 255, 1)" fill="none" class="stroke" mask="url(#Clip127)" />
  </g>
  <style>svg { filter: drop-shadow(0px 0px 1.5px rgba(0, 0, 0, 0.09803921568627451)); }</style>
</svg>